<?xml version="1.0" encoding="UTF-8" standalone="no"?>
<svg
   xmlns:dc="http://purl.org/dc/elements/1.1/"
   xmlns:cc="http://creativecommons.org/ns#"
   xmlns:rdf="http://www.w3.org/1999/02/22-rdf-syntax-ns#"
   xmlns:svg="http://www.w3.org/2000/svg"
   xmlns="http://www.w3.org/2000/svg"
   xmlns:xlink="http://www.w3.org/1999/xlink"
   xmlns:sodipodi="http://sodipodi.sourceforge.net/DTD/sodipodi-0.dtd"
   xmlns:inkscape="http://www.inkscape.org/namespaces/inkscape"
   sodipodi:docname="Flag_map_of_Italy.svg"
   inkscape:version="1.0 (4035a4fb49, 2020-05-01)"
   xml:space="preserve"
   enable-background="new 0 0 1500 1000"
   viewBox="0 0 829.73248 949.1051"
   height="949.1051"
   width="829.73248"
   y="0px"
   x="0px"
   id="Layer_1"
   version="1.1"><metadata
   id="metadata29"><rdf:RDF><cc:Work
       rdf:about=""><dc:format>image/svg+xml</dc:format><dc:type
         rdf:resource="http://purl.org/dc/dcmitype/StillImage" /></cc:Work></rdf:RDF></metadata><defs
   id="defs27" /><sodipodi:namedview
   inkscape:document-rotation="0"
   inkscape:current-layer="g15"
   inkscape:window-maximized="1"
   inkscape:window-y="-8"
   inkscape:window-x="-8"
   inkscape:cy="309.50826"
   inkscape:cx="620.45753"
   inkscape:zoom="0.944"
   fit-margin-bottom="0"
   fit-margin-right="0"
   fit-margin-left="0"
   fit-margin-top="0"
   showgrid="false"
   id="namedview25"
   inkscape:window-height="1017"
   inkscape:window-width="1920"
   inkscape:pageshadow="2"
   inkscape:pageopacity="0"
   guidetolerance="10"
   gridtolerance="10"
   objecttolerance="10"
   borderopacity="1"
   bordercolor="#666666"
   pagecolor="#ffffff" />
<g
   transform="translate(-335.33457,-0.265)"
   id="_164518608_1_">
</g>
<g
   transform="translate(-335.33457,-0.265)"
   id="_164518608">
</g>
<g
   transform="translate(-335.33457,-0.265)"
   id="g5">
	<defs
   id="defs7">
		<path
   inkscape:connector-curvature="0"
   d="m 969.805,800.324 c -9.165,4.935 -39.475,78.241 -32.425,88.109 2.818,4.231 16.916,4.231 12.685,7.05 -3.522,2.115 -2.818,-4.935 -4.932,0 0,1.412 -1.412,2.819 -0.706,4.935 1.409,5.638 9.869,8.456 11.981,14.1 0.706,1.406 -2.112,0.703 -3.522,2.109 -3.524,2.116 -7.05,4.231 -9.165,7.759 -2.112,3.522 -2.818,7.753 -3.522,11.275 -0.706,4.231 2.113,9.869 0,13.391 -1.409,2.116 -3.524,-7.044 -16.918,-6.341 -14.803,1.412 -8.459,6.341 -28.196,-2.818 -8.459,-3.522 -10.575,-19.034 -19.737,-24.672 -12.688,-7.753 -23.966,0 -38.063,-5.638 -2.115,-0.709 -4.233,-1.412 -6.347,-2.819 -2.818,-2.115 -4.229,-7.05 -7.753,-8.461 -2.819,-2.116 -6.344,0 -9.869,-1.407 -14.1,-4.935 -23.965,-18.33 -39.472,-22.562 -6.347,-1.406 -13.396,4.935 -19.74,2.115 -1.409,-0.703 -18.327,-19.033 -17.621,-21.853 0,-2.818 4.23,-4.226 4.23,-6.341 0.704,-2.115 -2.118,-2.819 -2.118,-4.935 0,-2.818 1.412,-6.347 3.527,-9.165 2.115,-2.819 6.344,-3.522 9.163,-6.347 3.524,-2.818 7.05,-13.391 9.868,-9.863 1.41,2.11 3.525,16.21 9.872,15.507 23.963,-3.522 0,-21.149 30.307,-19.737 7.756,0 1.409,8.456 5.64,10.571 2.819,1.412 7.05,-2.115 10.572,-0.703 2.115,0.703 1.412,4.935 2.821,5.638 4.229,2.824 9.866,5.644 14.804,5.644 0.706,0 18.327,-8.462 18.327,-8.462 5.638,-0.704 17.622,3.527 26.081,1.406 17.619,-3.522 16.916,-10.572 26.081,-15.506 21.145,-11.275 5.638,4.23 26.081,2.824 14.097,-0.709 4.229,-8.462 9.869,-14.1 2.112,-2.116 2.112,6.341 4.228,5.638 12.688,-2.818 12.688,-14.099 23.969,-6.341 M 504.572,540.213 c 2.116,9.874 33.131,7.758 28.903,23.265 -0.706,4.23 -12.688,2.818 -11.278,7.753 1.41,4.935 11.278,3.527 14.8,7.753 1.41,1.412 -3.522,2.116 -3.522,4.231 4.228,25.375 10.572,-10.577 11.981,23.26 0.703,11.983 -11.981,16.215 -15.506,26.083 -3.525,9.165 7.047,9.165 8.457,16.919 0,2.818 -3.522,5.638 -3.522,9.159 -2.115,23.266 0.704,55.69 -12.688,78.949 -0.706,1.412 0,-2.11 -1.409,-2.818 -9.872,-3.527 -22.559,-13.391 -34.541,-12.688 -2.115,0 4.935,2.818 4.935,4.935 -0.706,2.818 -4.231,4.226 -4.935,7.753 -4.231,16.215 7.047,13.396 -12.69,22.556 -27.491,12.688 -10.572,-13.391 -23.966,-19.028 -3.525,-1.412 -7.05,4.226 -11.278,4.226 -2.822,0 8.457,-0.703 9.163,-4.226 0,-4.935 -7.05,-7.759 -8.459,-11.989 -4.228,-14.095 5.641,-23.254 7.753,-35.244 0.706,-4.934 -2.113,-9.159 -0.704,-14.094 0.704,-4.231 8.459,-6.347 7.05,-10.577 -0.703,-3.522 -8.459,0 -10.575,-2.819 -2.115,-3.522 1.41,-7.753 1.41,-11.275 0,-0.703 -2.819,-0.703 -2.116,-1.412 1.41,-2.115 5.641,-1.406 7.05,-4.226 2.819,-7.05 -7.753,-41.59 -11.981,-46.524 -8.459,-9.165 -14.097,21.145 -11.984,-14.1 0.706,-4.934 5.64,-8.456 6.344,-13.396 0.706,-2.819 -2.819,-5.638 -0.704,-7.754 0.704,-0.703 5.638,14.1 18.325,14.1 10.575,0.707 49.343,-31.014 55.687,-38.772 M 794.989,46.786 c -1.41,14.1 -19.031,11.281 -20.441,22.556 -1.409,8.462 14.804,7.05 18.328,9.869 4.932,4.231 -8.459,9.869 -10.574,16.215 -2.819,9.166 8.459,-0.703 9.868,2.819 1.409,3.522 -6.344,12.688 -1.409,15.506 7.047,4.231 35.243,21.149 10.572,19.737 1.409,-3.522 1.409,-6.341 -1.41,-9.869 -13.391,-12.688 -12.688,-7.05 -20.44,2.824 0.706,-0.708 0.706,-1.417 0.706,-1.417 0,-7.044 -13.396,-8.457 -19.74,-5.638 -3.521,2.116 0,9.874 -2.818,12.693 -2.819,2.819 -7.753,0.704 -11.981,2.116 -9.871,4.226 -19.034,15.506 -30.312,17.616 -3.522,0.709 -7.047,-2.819 -9.869,-0.703 -2.819,0.703 0,4.934 -1.409,7.758 -0.706,2.11 -2.822,4.934 -4.231,7.044 0.706,-0.704 0.706,-1.407 1.409,-1.407 3.525,0 0.706,7.753 3.525,9.16 1.41,0.709 2.116,-4.226 3.528,-2.819 1.409,2.819 4.228,8.462 1.409,10.572 -1.409,0.708 -2.115,2.115 -1.409,3.527 0.706,0.704 2.113,-0.708 3.525,-0.708 4.228,3.527 11.275,5.643 11.981,10.577 4.228,19.737 -12.688,11.984 -17.625,23.963 -1.41,3.528 7.756,41.596 9.871,45.821 4.229,7.05 53.569,42.293 63.44,47.931 9.869,5.643 12.688,2.116 21.851,9.874 9.871,8.457 23.262,64.141 31.015,78.241 7.756,14.803 23.969,28.194 36.656,38.062 4.23,2.819 10.574,3.528 14.1,7.05 2.112,1.412 0,5.644 1.406,7.05 19.034,19.737 54.983,13.391 77.54,9.869 4.937,-0.704 15.509,-8.457 21.853,-1.412 17.622,19.742 -35.246,26.787 -8.459,45.112 25.378,16.924 60.621,15.512 86.702,28.902 9.165,4.935 12.688,12.692 23.26,16.215 8.462,3.522 31.721,7.05 38.773,12.688 2.819,2.115 0,7.05 2.113,9.165 8.459,11.984 31.015,9.869 38.064,34.54 2.819,9.16 -3.524,6.342 -5.64,12.688 -1.41,3.522 0.706,17.622 -2.113,19.034 -2.821,2.11 -7.756,0 -11.986,-2.115 -21.848,-8.462 -12.688,-21.149 -23.966,-35.952 -6.344,-8.457 -26.784,0 -37.359,-3.522 -14.097,-4.935 -21.85,-21.149 -35.246,-7.05 -1.409,2.115 -19.028,37.359 -19.028,38.766 0,2.115 3.522,4.231 2.818,7.056 -2.818,13.391 -16.918,12.682 -4.935,28.193 7.051,8.457 9.163,0.703 16.916,2.819 8.459,2.818 14.1,11.28 21.853,14.803 2.819,1.406 7.05,0 8.46,2.818 1.409,2.116 -2.819,4.935 -2.819,7.754 0.703,19.737 9.866,1.412 8.457,26.787 -0.704,14.803 -28.9,9.159 -41.588,23.968 -9.162,10.572 2.819,21.144 0,33.831 -2.115,10.572 -9.162,7.754 -16.215,13.392 -16.916,14.808 -4.932,48.64 -40.178,38.776 -7.047,-2.121 -14.801,-20.446 -10.572,-28.199 2.819,-4.231 9.869,-3.522 13.391,-7.05 2.116,-2.819 2.116,-7.05 2.822,-10.572 0.703,-3.527 3.521,-6.347 2.818,-9.868 -0.706,-4.231 -7.753,-6.347 -7.05,-10.577 2.819,-12.688 19.737,-5.639 24.672,-12.688 11.984,-14.095 -2.113,-16.21 -7.753,-23.963 -5.638,-8.462 -2.819,-20.441 -7.05,-29.606 -2.116,-5.643 -4.935,-10.577 -8.46,-14.803 -0.703,-1.412 -3.521,-1.412 -4.932,-2.819 -12.688,-19.033 0.704,-7.753 -7.756,-28.902 C 961.344,624.097 955,637.493 933.855,638.9 c -0.706,0 0.704,-2.109 0,-3.521 -2.818,-2.824 -6.346,-6.347 -10.574,-8.462 -4.231,-2.116 -12.688,0 -15.507,-4.935 -2.818,-4.935 5.638,-9.863 4.932,-15.506 -0.703,-5.639 -4.932,-10.572 -7.75,-14.804 -16.921,-23.265 -19.74,9.165 -39.478,2.116 -2.115,-0.704 13.394,-11.984 6.347,-16.919 -25.378,-18.325 -0.706,0.709 -28.196,-2.818 -2.115,-0.704 0,-4.231 -0.706,-6.347 -2.819,-8.457 -17.622,-31.013 -24.672,-33.832 -19.031,-7.05 -4.229,6.342 -10.572,4.935 -6.346,-1.412 -11.983,-9.165 -19.033,-8.462 -6.344,1.412 -11.278,9.869 -16.916,8.462 -6.347,-1.412 -5.641,-10.577 -9.869,-14.803 -4.934,-4.231 -17.622,-2.819 -21.853,-5.638 l -10.574,-14.809 c -4.935,-4.226 -12.685,-4.934 -16.916,-9.863 -8.459,-12.688 1.41,-10.577 -8.459,-18.331 -4.231,-3.522 -9.163,-6.346 -14.097,-9.165 -1.412,-0.704 -4.231,1.412 -5.64,0.708 -7.753,-6.346 -7.753,-18.325 -15.509,-24.671 -13.391,-11.281 -21.85,-2.819 -35.95,-8.462 -2.113,-0.704 3.525,-2.819 4.935,-4.226 4.228,-5.638 -4.229,-14.803 -6.344,-16.918 -1.41,-1.412 -4.229,0 -5.638,-1.412 -2.116,-2.819 -2.116,-7.05 -4.935,-9.16 -3.525,-2.824 -10.575,-0.709 -13.394,-4.935 -2.115,-2.819 4.231,-8.462 0.704,-10.577 -4.229,-3.522 -11.278,0.708 -16.916,-1.407 -3.525,-1.412 2.116,-7.759 2.116,-11.984 2.113,-14.1 0,-19.034 -7.753,-31.018 -14.805,-21.144 -4.231,-40.178 -21.853,-56.387 -1.409,-2.116 -4.231,-2.824 -6.344,-3.528 -0.706,0 -1.409,2.116 -2.115,1.412 -3.525,-1.412 -5.638,-5.643 -9.166,-5.643 -2.115,0 2.118,6.347 0,5.643 -5.638,-1.412 -9.869,-5.643 -14.8,-9.165 -2.115,-1.412 -19.74,-19.737 -25.377,-19.737 -1.41,0 0.703,3.527 -0.706,4.231 -1.41,0.703 -3.522,0 -4.229,-1.412 -3.525,-4.231 -18.328,-11.275 -25.377,-11.275 -2.819,0 -21.144,10.572 -22.554,13.391 -1.412,2.819 0.704,7.05 -1.412,9.166 -2.115,2.819 -7.753,2.115 -9.869,4.226 -4.934,4.934 -8.459,16.215 -14.097,21.149 -9.165,9.166 -25.377,8.457 -35.95,9.869 -3.525,-12.688 20.441,-28.903 9.869,-36.656 -3.525,-2.116 -8.459,0.708 -12.688,1.412 -4.231,0 -9.165,2.115 -13.394,0.703 -7.753,-2.115 -26.083,-15.506 -25.377,-25.375 0,-1.412 3.525,-1.412 3.525,-2.819 -0.706,-2.115 -7.753,-4.231 -5.641,-8.462 2.819,-2.819 6.344,-4.934 8.462,-8.457 0.704,-0.703 -1.412,-2.115 -0.708,-3.527 0.708,-2.116 7.052,1.412 7.756,-0.704 0,-5.638 -0.704,-11.275 -2.819,-15.506 -3.525,-5.638 -26.787,-14.803 -25.378,-26.083 0,-3.522 6.344,-3.522 9.869,-4.226 2.116,0 3.525,4.226 5.638,3.522 3.525,-0.703 26.084,-19.028 22.559,-25.375 -2.116,-4.231 -9.163,-4.935 -11.278,-9.869 -2.113,-2.818 0.706,-7.753 -0.703,-10.572 -9.872,-16.918 -28.197,-8.462 4.228,-27.49 7.047,12.687 26.081,-1.412 35.244,-3.528 6.344,-1.407 11.278,7.05 17.622,7.05 0.706,0 20.443,-20.44 20.443,-23.968 0.704,-3.522 -5.64,-4.934 -4.934,-7.753 1.409,-4.231 7.047,-5.638 10.572,-8.457 3.525,-2.819 6.344,-5.638 9.872,-8.462 1.409,-0.704 2.819,-2.116 3.525,-1.407 1.409,4.231 0.703,8.457 0.703,12.688 0,2.115 -2.113,4.934 -1.409,7.753 4.934,9.166 16.212,11.275 23.965,14.094 0.704,0 2.113,1.412 2.113,2.824 -0.703,2.819 -5.638,4.935 -4.934,7.753 0.706,2.819 5.643,1.412 7.758,3.522 2.819,3.528 4.229,15.506 8.457,11.984 11.981,-9.166 -2.115,-6.341 -2.115,-13.391 0,-15.512 16.918,-19.737 19.737,-32.425 0,-1.412 -7.753,-20.446 4.231,-18.331 9.163,1.412 -2.118,15.512 16.212,19.737 11.275,3.528 2.113,-10.572 21.146,-7.044 5.638,0.704 2.819,11.979 7.753,14.798 2.819,1.412 8.459,-1.407 7.753,-4.226 -1.409,-2.116 -4.228,-3.528 -4.934,-6.347 0,-2.819 4.231,-4.934 3.525,-7.753 -1.41,-3.528 -14.097,-11.281 -4.229,-18.325 12.688,-9.166 7.753,11.275 22.556,7.753 8.459,-2.824 -4.935,-12.688 -4.935,-14.1 1.41,-2.819 3.525,-4.934 4.231,-7.753 1.41,-2.819 0.704,-6.347 1.41,-9.166 l 0,0 c 11.275,5.638 1.409,-1.407 12.688,0 5.638,0.704 11.275,15.512 22.556,9.166 l 9.163,-19.034 c 5.638,-4.226 30.312,-1.407 36.656,-2.116 10.575,-0.704 19.031,-9.863 29.606,-9.863 2.819,0 -4.935,3.522 -5.641,6.341 -3.525,14.803 5.641,4.935 11.278,13.391 1.409,2.115 -2.116,4.934 -0.706,7.753 0.706,1.412 2.821,-1.407 4.231,0 13.394,9.874 16.918,11.281 35.246,14.1 17.62,2.117 35.242,3.529 52.865,4.936 l 0,0 z"
   id="it_6_1_" />
	</defs>
	
	<clipPath
   id="it_6_2_">
		<use
   height="1000"
   width="1500"
   y="0"
   x="0"
   style="overflow:visible"
   id="use13"
   overflow="visible"
   xlink:href="#it_6_1_" />
	</clipPath>
	<g
   style="stroke-width:2;stroke-miterlimit:4;stroke-dasharray:none"
   id="g15"
   clip-path="url(#it_6_2_)">
		
		<rect
   style="fill:#ce2b37;stroke:#ffffff;stroke-width:2;stroke-miterlimit:4;stroke-dasharray:none"
   id="rect19"
   height="1074.9561"
   width="276.444"
   y="-63.094002"
   x="888.22198" />
		<rect
   style="fill:#009246;stroke:#ffffff;stroke-width:2;stroke-miterlimit:4;stroke-dasharray:none"
   id="rect21"
   height="1074.9561"
   width="276.444"
   y="-63.094002"
   x="335.33401" />
	<path
   inkscape:connector-curvature="0"
   id="path3006"
   d="m 610.28553,387.62326 c -0.12283,-1.02408 -1.43371,-2.22124 -3.28183,-2.99712 -1.28397,-0.53904 -2.33618,-0.59075 -7.5156,-0.36934 -3.31242,0.1416 -6.47249,0.14453 -7.02238,0.007 -1.36805,-0.34336 -1.30317,-1.30142 0.36,-5.31509 1.61133,-3.88858 2.36764,-8.51599 2.37822,-14.55102 0.0127,-7.21489 -1.78626,-12.17188 -7.96451,-21.94669 -3.8044,-6.01904 -4.63929,-7.63298 -6.35704,-12.28879 -1.55698,-4.22008 -2.06624,-6.51544 -3.86043,-17.39989 -0.74561,-4.5232 -1.77243,-9.66358 -2.28183,-11.42307 -2.47983,-8.56546 -9.15185,-17.42543 -14.62506,-19.42107 -2.65547,-0.96823 -3.2326,-1.00674 -3.85465,-0.25721 -0.25644,0.30899 -0.65628,0.56159 -0.88854,0.56134 -0.23227,-2.5e-4 -1.68188,-1.02998 -3.22137,-2.28827 -3.08463,-2.52123 -3.9393,-2.95465 -5.82626,-2.95465 -1.73325,0 -2.30389,1.04207 -1.69094,3.0879 0.24377,0.81364 0.33703,1.58553 0.20725,1.71531 -0.39354,0.39354 -4.12585,-1.82219 -8.40538,-4.98995 -2.22667,-1.64821 -7.2595,-5.92738 -11.18406,-9.50927 -7.54657,-6.88763 -12.79053,-11.06 -15.84743,-12.60905 -1.8263,-0.92546 -4.19037,-1.30369 -4.73602,-0.75773 -0.15358,0.15366 -0.24369,1.10795 -0.20025,2.12065 0.0682,1.59121 -0.0184,1.84127 -0.63752,1.84127 -0.39407,0 -1.83536,-0.9932 -3.20286,-2.20711 -5.68758,-5.04875 -17.91249,-10.25688 -24.21451,-10.31601 -2.36707,-0.0222 -2.77698,0.11333 -7.29083,2.41089 -5.07021,2.58074 -12.33568,7.05637 -15.05848,9.27624 -2.17357,1.77207 -2.67033,3.09764 -2.67033,7.12563 0,4.19537 -0.36991,4.61128 -5.29507,5.95343 -1.92847,0.52553 -3.95737,1.27493 -4.50866,1.66534 -1.50033,1.06249 -3.21679,3.57886 -7.2462,10.6231 -4.51236,7.88854 -5.68538,9.50814 -8.66871,11.96893 -5.39851,4.45294 -11.34346,6.25209 -25.38507,7.68239 -4.1057,0.41822 -7.54054,0.76039 -7.63298,0.76039 -0.0924,0 -0.0772,-0.96909 0.0339,-2.15353 0.35496,-3.78514 1.37719,-5.92411 8.0508,-16.84606 3.58628,-5.86924 4.65159,-8.48002 4.65651,-11.41181 0.003,-1.72919 -0.19921,-2.43659 -1.06417,-3.72449 -2.15133,-3.20324 -5.36252,-3.85501 -10.99201,-2.23102 -3.35798,0.9687 -11.66287,2.28497 -14.41683,2.28497 -7.87901,0 -24.08354,-12.68753 -26.92372,-21.08023 -0.91038,-2.69018 -0.80717,-3.14641 0.90999,-4.02244 2.84722,-1.45254 2.51646,-3.1103 -1.15886,-5.80823 -1.03283,-0.75817 -2.13467,-1.87508 -2.44854,-2.48203 l -0.57066,-1.10354 4.30177,-4.21488 c 4.4522,-4.36229 5.16581,-5.53224 4.3998,-7.21344 -0.23213,-0.50948 -0.42206,-1.00872 -0.42206,-1.10942 0,-0.10071 1.4747,-0.0728 3.27711,0.062 3.00184,0.22451 3.33513,0.18057 3.96777,-0.52313 0.64294,-0.71515 0.66168,-1.08579 0.27121,-5.36469 -0.47307,-5.18405 -1.16315,-8.21793 -2.524,-11.0965 -1.01348,-2.14378 -3.25304,-4.04647 -10.23547,-8.69589 -8.47897,-5.64593 -13.25108,-10.13919 -14.60138,-13.7482 -1.51184,-4.04075 -0.8064,-5.17913 3.7401,-6.03551 4.77939,-0.90025 4.3164,-0.97502 6.56341,1.05988 1.21796,1.10299 2.41166,1.86432 2.9231,1.86432 3.27381,0 18.05285,-12.67923 22.10371,-18.96321 4.10173,-6.36289 3.31877,-8.79549 -4.43008,-13.76388 -1.67221,-1.07218 -3.52923,-2.63157 -4.21476,-3.53926 l -1.22548,-1.6226 0.095,-4.74435 0.095,-4.74436 -1.29304,-1.87263 c -2.12423,-3.07641 -4.86353,-5.74821 -8.64818,-8.43508 -4.5759,-3.24861 -4.68169,-3.37716 -3.752,-4.55907 0.90099,-1.14543 4.66231,-3.75312 11.16704,-7.74202 l 4.96436,-3.04429 1.31209,1.45233 c 1.45661,1.61229 3.96359,2.83932 6.59801,3.22937 3.73392,0.55283 9.67749,-1.02597 18.62942,-4.94857 5.02982,-2.20399 9.53567,-3.85628 10.50685,-3.85283 1.51787,0.005 3.63419,0.9565 6.83868,3.07349 4.03648,2.66661 7.04201,4.01892 8.96018,4.03154 1.24038,0.008 1.718,-0.36844 5.80746,-4.57907 7.92919,-8.164111 14.01736,-15.376821 15.63294,-18.52048 1.31339,-2.555633 0.63602,-4.613539 -2.35524,-7.155389 -1.04369,-0.886887 -1.89762,-1.85011 -1.89762,-2.140496 0,-1.07448 2.40461,-3.209542 6.11197,-5.42685 2.19808,-1.314634 6.03371,-4.189214 9.05637,-6.787221 5.90711,-5.077217 6.37591,-5.402595 6.81004,-4.726539 0.48916,0.761767 0.60573,9.42123 0.15337,11.393185 -0.22835,0.995447 -0.66497,2.725031 -0.97027,3.843522 -0.72358,2.650879 -0.29359,4.278056 1.81358,6.862981 3.32031,4.073111 8.10075,6.839861 17.26498,9.992359 5.76282,1.982408 6.57582,2.382504 6.57582,3.236081 0,0.273918 -1.00382,1.62887 -2.23072,3.011009 -2.41632,2.722048 -2.95512,4.092938 -2.26424,5.760878 0.51117,1.23407 1.94159,1.99664 4.86949,2.59597 1.13294,0.2319 2.24793,0.54358 2.47775,0.69261 0.57796,0.3748 1.65636,2.63116 3.262,6.82519 2.60493,6.80421 4.47289,7.81805 8.3792,4.5478 2.8417,-2.379 3.4367,-3.07764 3.85079,-4.5215 0.53419,-1.86258 -0.0883,-2.84882 -2.95998,-4.6895 -3.71111,-2.37876 -4.00781,-2.93599 -3.45538,-6.48939 0.83255,-5.355155 2.58143,-8.166784 9.59494,-15.425565 5.58625,-5.781602 6.84022,-7.310529 8.15098,-9.938221 1.86651,-3.741808 1.8915,-4.057763 0.69613,-8.801382 -1.85339,-7.354851 -1.85712,-10.536544 -0.0145,-12.379143 0.89611,-0.896108 3.63762,-0.987661 5.21103,-0.174022 1.27518,0.659424 1.70177,1.828481 2.25733,6.186208 0.71457,5.604888 3.0983,9.212972 7.44198,11.264402 2.63111,1.242616 6.37896,2.218566 8.51977,2.218566 2.36576,0 3.48818,-0.79642 5.06831,-3.596249 2.15338,-3.815571 3.97343,-4.571598 9.98441,-4.147398 4.61893,0.325962 4.56326,0.251637 6.63394,8.857995 0.84119,3.496213 2.06853,5.401817 3.9689,6.162193 3.55824,1.423726 8.94624,-1.525321 8.94624,-4.896606 0,-0.806327 -0.44153,-1.607294 -1.53564,-2.785776 -2.52016,-2.714493 -3.3332,-3.746168 -3.3332,-4.229544 0,-0.251966 0.7384,-1.472898 1.64089,-2.713185 2.86913,-3.943015 2.74161,-4.770855 -1.46416,-9.505141 -2.7329,-3.07634 -4.09783,-5.199045 -4.45527,-6.928747 -0.51014,-2.468588 2.70594,-6.218868 6.43132,-7.499593 2.23371,-0.767913 3.20551,-0.161058 5.71239,3.56721 3.50669,5.215203 5.34143,6.36852 10.11212,6.356494 4.08962,-0.01031 6.74149,-1.811586 6.74149,-4.579137 0,-1.502325 -1.81504,-4.618498 -4.24111,-7.281403 -3.64649,-4.002464 -3.48933,-3.462838 -1.77912,-6.108858 2.06157,-3.18965 3.08344,-6.054913 3.30813,-9.275801 0.10452,-1.4982 0.31821,-2.803218 0.47487,-2.90004 0.15666,-0.09682 0.99812,0.07562 1.86991,0.383208 2.40084,0.847066 3.55508,0.72435 4.42732,-0.470702 0.69257,-0.948907 0.94355,-1.027271 3.1895,-0.99591 2.81547,0.03931 3.37803,0.336156 6.97084,3.67828 1.34813,1.254061 3.25395,2.95426 4.23516,3.778219 l 1.78403,1.498107 -0.10156,178.087541 c -0.0559,97.94815 -0.14352,177.73771 -0.19481,177.31014 z"
   style="fill:#009246;fill-opacity:1;fill-rule:evenodd;stroke:#009246;stroke-width:2;stroke-linecap:round;stroke-linejoin:round;stroke-miterlimit:4;stroke-opacity:1;stroke-dasharray:none;stroke-dashoffset:0" /><path
   inkscape:connector-curvature="0"
   id="path3776"
   d="m 803.89568,127.27972 c -16.40679,-3.9785 -15.59402,-5.50473 11.707,-21.98325 l 12.94589,-7.813997 0.22479,16.693527 c 0.11657,9.18144 -2.09228,16.69352 -4.92442,16.69352 -2.83211,0 -11.81123,-1.61541 -19.95342,-3.5898 z"
   style="fill:#009246;fill-opacity:1;fill-rule:evenodd;stroke:#009246;stroke-width:15.8954;stroke-linecap:round;stroke-linejoin:round;stroke-miterlimit:4;stroke-dasharray:none;stroke-dashoffset:0;stroke-opacity:1" /><path
   inkscape:connector-curvature="0"
   id="path3778"
   d="m 459.08551,758.41383 c -1.01415,-1.09429 -1.50543,-2.99013 -2.08071,-8.02945 -0.69474,-6.08586 -1.78223,-9.26773 -3.79584,-11.1062 -0.94988,-0.86727 -3.62646,-2.37418 -4.24495,-2.38991 -0.20904,-0.005 -0.70005,-0.70281 -1.09114,-1.55 -0.39108,-0.84719 -2.13325,-2.99169 -3.87149,-4.76556 -3.54323,-3.61586 -4.02934,-4.48212 -4.60799,-8.21163 -0.72251,-4.65667 0.47541,-10.12767 3.95154,-18.04698 2.35038,-5.35464 3.17346,-7.55802 3.9407,-10.54916 0.88316,-3.44304 0.91432,-5.10206 0.17473,-9.30077 -1.11105,-6.30742 -0.76639,-7.58958 3.03401,-11.28667 3.13357,-3.04839 3.89473,-4.21074 3.89473,-5.94759 0,-2.78574 -1.70917,-3.73924 -6.7027,-3.73924 -4.93265,0 -5.42845,-0.9132 -3.60157,-6.63359 1.01365,-3.17395 1.17828,-4.96428 0.51729,-5.62528 -0.41022,-0.41022 0.58548,-1.00511 2.92525,-1.74773 1.33351,-0.42324 2.34889,-1.89832 2.74668,-3.99019 1.2567,-6.60873 -4.58781,-30.28651 -10.48786,-42.48931 -1.52175,-3.14737 -2.06719,-3.90969 -3.41663,-4.77522 -2.81798,-1.80744 -5.0288,-1.26963 -8.44525,2.05444 l -1.93329,1.881 -0.24005,-2.01453 c -0.13202,-1.108 -0.084,-5.01125 0.10669,-8.67389 l 0.34674,-6.65935 2.72473,-4.50982 c 2.7833,-4.60677 3.83174,-7.51256 3.45035,-9.56272 -0.18113,-0.97368 -0.0617,-0.89977 1.29279,0.79983 2.66155,3.33973 5.09472,5.44311 7.90083,6.82997 2.33794,1.15547 3.2241,1.38395 5.91545,1.52521 3.8551,0.20234 5.55543,-0.2166 10.30807,-2.53978 10.36744,-5.0678 30.99966,-20.2666 42.95169,-31.64051 l 3.26965,-3.1115 1.68335,1.50913 c 2.06008,1.84687 4.5352,3.00255 11.80447,5.51175 9.78325,3.37697 13.36858,5.53689 14.61695,8.80569 0.7328,1.91882 0.51636,4.4265 -0.47679,5.52391 -0.33499,0.37017 -2.05448,1.1116 -3.82106,1.64761 -3.89142,1.18073 -5.86699,2.14211 -6.38294,3.10617 -0.70788,1.32268 -0.45141,3.26018 0.59638,4.50541 1.30593,1.552 2.86712,2.29208 7.94045,3.76416 2.33325,0.67701 4.59107,1.51337 5.01736,1.85856 0.7693,0.62294 0.76486,0.63393 -0.59539,1.47461 -2.36387,1.46096 -2.44268,1.99729 -1.1052,7.52153 1.44044,5.94953 3.81914,7.67551 7.23045,5.24644 0.58094,-0.41366 1.23437,-0.75212 1.45208,-0.75212 0.74142,0 1.53315,3.82152 1.98462,9.57934 0.74344,9.48142 0.0977,11.24069 -6.99041,19.04484 -2.26588,2.49479 -4.76045,5.40976 -5.54349,6.47771 -2.95322,4.02781 -4.02066,8.68251 -2.65236,11.56598 0.33304,0.70182 1.92349,2.5159 3.53435,4.03128 3.31651,3.11993 4.84877,5.16961 4.84877,6.48611 0,0.49594 -0.69009,2.15908 -1.53354,3.69587 -1.9287,3.51421 -2.01404,4.17419 -2.76283,21.36552 -0.72436,16.6307 -1.14002,22.66071 -2.08249,30.21141 -1.37905,11.04838 -3.6325,19.63102 -7.1783,27.33966 -1.02884,2.23672 -1.23541,2.47449 -1.76282,2.02912 -0.32858,-0.27748 -1.52437,-0.89142 -2.65731,-1.36432 -1.13295,-0.4729 -5.17784,-2.41646 -8.98865,-4.31903 -10.6453,-5.31471 -15.13154,-6.91707 -21.0694,-7.52542 -1.5314,-0.1569 -2.91729,-0.0842 -3.7718,0.19779 -1.21815,0.40203 -1.30609,0.51866 -0.89512,1.18722 0.25067,0.40778 1.59865,1.57754 2.99552,2.59948 2.89984,2.1215 2.89746,1.96552 0.0803,5.26593 -2.70325,3.16694 -3.77585,7.92705 -3.34959,14.8652 0.25268,4.11282 0.23472,4.26092 -0.62876,5.18406 -1.16004,1.24022 -3.96607,2.84642 -9.50297,5.4396 -5.61886,2.63155 -9.00017,3.68165 -11.85494,3.68165 -1.90493,0 -2.35321,-0.1377 -3.11132,-0.95572 l 0,0 z"
   style="fill:#009246;fill-opacity:1;fill-rule:evenodd;stroke:#009246;stroke-width:2;stroke-linecap:round;stroke-linejoin:round;stroke-miterlimit:4;stroke-opacity:1;stroke-dasharray:none;stroke-dashoffset:0" /><path
   inkscape:connector-curvature="0"
   id="path3780"
   d="m 868.21947,592.90153 c -0.43131,-0.29905 0.18664,-1.40005 2.02206,-3.60265 1.45375,-1.74465 3.10375,-4.05635 3.66668,-5.13718 1.31445,-2.52373 1.32282,-5.72119 0.0193,-7.37834 -1.33533,-1.69756 -11.66425,-8.76578 -13.47306,-9.21975 -1.63514,-0.41044 -3.00159,0.45699 -3.00159,1.90535 0,2.4474 -4.91472,4.06986 -10.29297,3.39788 l -2.83656,-0.3544 0.0227,-2.99152 c 0.0192,-2.53083 -0.35664,-3.74471 -2.44056,-7.88247 -3.82499,-7.59476 -11.67658,-18.85901 -16.76192,-24.04741 -4.37395,-4.46255 -4.63387,-4.63416 -9.12969,-6.0286 -7.32205,-2.27107 -9.962,-1.08719 -8.46349,3.79545 0.52971,1.72595 0.49933,1.80217 -0.5905,1.48241 -0.63192,-0.18543 -3.1749,-1.59497 -5.65107,-3.13236 -5.87242,-3.64604 -6.29915,-3.85408 -9.27203,-4.52031 -3.38638,-0.75891 -5.3148,-0.0863 -10.59026,3.69361 -5.39076,3.86261 -6.15703,4.25196 -8.36752,4.25196 -2.49783,0 -4.2139,-1.86398 -6.01203,-6.53018 -1.82941,-4.74738 -3.39412,-7.32146 -5.14977,-8.47181 -1.85149,-1.21314 -6.21356,-2.2953 -13.1542,-3.26336 -3.18904,-0.44479 -6.22872,-1.03909 -6.75484,-1.32066 -0.52612,-0.28157 -3.29577,-3.79579 -6.15477,-7.80937 -2.85901,-4.01358 -5.56834,-7.60744 -6.02075,-7.98636 -0.4524,-0.37892 -3.55276,-1.99669 -6.88968,-3.59505 -3.33692,-1.59837 -6.79296,-3.46314 -7.68009,-4.14396 -2.48216,-1.9049 -4.66126,-6.73953 -5.02375,-11.14591 -0.35413,-4.30462 -0.89549,-5.19243 -5.48316,-8.99211 -3.63291,-3.00888 -13.88525,-9.30479 -15.15209,-9.30479 -0.47028,0 -1.61801,0.21882 -2.55053,0.48626 -1.56965,0.45017 -1.84014,0.32614 -3.64459,-1.67117 -1.072,-1.18659 -2.88703,-4.20598 -4.03339,-6.70977 -1.14635,-2.5038 -2.83497,-6.10161 -3.75248,-7.99515 -2.92014,-6.02658 -9.7735,-11.69919 -16.10455,-13.32995 -1.10689,-0.28511 -6.30277,-0.71084 -11.54641,-0.94606 -5.24365,-0.23523 -10.2304,-0.70427 -11.08168,-1.04232 l -1.54778,-0.61463 1.97249,-1.34035 c 4.43899,-3.01637 4.0218,-8.70116 -1.14973,-15.66651 -2.91912,-3.93167 -4.0594,-4.82118 -6.61808,-5.16269 -2.16087,-0.28841 -2.29109,-0.4186 -4.08582,-4.08471 -1.0196,-2.08273 -2.19397,-4.18399 -2.60973,-4.66946 -1.26242,-1.47409 -3.62785,-2.43492 -7.62253,-3.09624 l -3.80376,-0.6297 -0.1653,-135.06356 c -0.0909,-74.28496 -0.003,-156.55024 0.19636,-182.811733 l 0.36166,-47.748165 1.91419,0.799801 c 1.2322,0.514845 2.77508,0.697841 4.3305,0.513626 4.8062,-0.569223 4.98956,-0.775516 10.07337,-11.332768 3.92973,-8.160662 4.89741,-9.771962 6.15801,-10.253816 1.98704,-0.759533 7.7096,-1.044666 24.27105,-1.209333 15.4865,-0.153979 13.85943,0.175484 25.10736,-5.08395 3.78419,-1.7694542 7.66378,-3.3738772 8.62131,-3.5653832 l 1.74097,-0.348194 -1.38811,1.649672 c -1.9203,2.2821476 -2.9048,7.8205912 -1.84222,10.3636942 0.77356,1.85139 2.86548,2.998995 5.46676,2.998995 1.59738,0 5.25215,1.83898 5.87827,2.957784 0.29769,0.531943 0.19347,1.862108 -0.2804,3.578938 -0.5769,2.090109 -0.61654,3.090175 -0.16864,4.254705 0.54376,1.413745 0.73416,1.498594 2.66862,1.189262 1.92167,-0.307289 2.43667,-0.08571 6.64671,2.85975 8.39543,5.873672 13.72904,7.99332 25.1447,9.992834 6.69857,1.17329 25.09616,3.154637 44.71262,4.815369 6.96746,0.589866 12.73329,1.137657 12.81295,1.217314 0.0797,0.07965 -0.2854,1.105757 -0.81122,2.280224 -1.1809,2.637624 -4.33328,5.389625 -8.96085,7.822745 -7.45059,3.917436 -10.13601,6.96009 -10.31914,11.691869 -0.17463,4.512415 2.68756,6.557098 11.9142,8.511208 5.65349,1.197357 7.32517,1.910577 7.32517,3.125291 0,0.33455 -2.15746,2.748427 -4.79436,5.364174 -5.29526,5.252781 -6.56728,7.020259 -7.06254,9.813416 -0.65304,3.682941 1.72518,4.669301 7.01878,2.911048 1.53346,-0.50933 2.93215,-0.782023 3.1082,-0.60597 0.17605,0.17606 -0.46906,2.682933 -1.43359,5.570833 -1.86022,5.56973 -1.90388,7.78203 -0.1909,9.67484 0.82183,0.90811 0.78461,0.96181 -0.66837,0.96429 -1.74945,0.003 -3.52366,1.37234 -6.01099,4.63931 l -1.7195,2.25845 -0.98952,-1.25796 c -2.37991,-3.02557 -10.56526,-4.78869 -16.50443,-3.55506 -4.83244,1.00377 -5.34339,1.67422 -5.72644,7.51402 -0.48236,7.35395 -0.17891,7.04896 -7.5337,7.57212 -5.21774,0.37116 -7.70788,1.60647 -17.9231,8.8913 -11.67575,8.32638 -15.78867,10.01397 -21.07018,8.64539 -4.06074,-1.05224 -4.63306,-1.02718 -6.47374,0.28349 -1.43891,1.0246 -1.53833,1.32737 -1.53833,4.68484 0,3.28825 -0.17777,3.8645 -2.11864,6.8674 -1.16526,1.80287 -2.11865,3.48275 -2.11865,3.73307 0,0.59596 1.55266,1.18309 2.15092,0.81335 0.50357,-0.31123 0.81746,0.83427 1.21413,4.43076 0.42691,3.87073 3.05911,5.62182 4.71524,3.13685 0.79337,-1.19042 0.7952,-1.18948 1.65359,0.85917 1.19357,2.84858 1.07653,4.42366 -0.46481,6.25543 -1.35819,1.61412 -1.66687,3.30901 -0.84036,4.61427 0.32867,0.51906 1.07361,0.64827 2.50778,0.43498 1.83637,-0.27312 2.48821,-0.001 6.52433,2.72441 2.46628,1.66532 4.92185,3.77733 5.45684,4.69336 0.55063,0.94281 1.10484,3.24162 1.27723,5.29779 0.2559,3.0524 0.12408,3.98598 -0.82571,5.84772 -1.00862,1.97705 -1.71569,2.49503 -6.57118,4.81383 -9.05159,4.32271 -11.3559,7.12125 -10.695,12.98888 0.82502,7.32482 4.89338,25.75886 8.2852,37.54089 1.62339,5.63912 1.67367,5.72701 5.15333,9.00956 6.56928,6.19712 19.27153,16.05231 37.39703,29.01491 20.29876,14.51682 24.65321,17.09031 33.22767,19.63759 2.91326,0.86547 6.52025,2.35668 8.01552,3.31381 7.10233,4.54625 9.4254,9.5699 22.66612,49.01559 8.60297,25.62925 11.40131,32.20317 16.92873,39.76938 4.36042,5.96876 15.94955,17.47086 24.89641,24.70942 6.18312,5.00253 8.00493,6.1697 12.71187,8.14402 7.89409,3.31118 8.4075,3.75916 8.4075,7.33599 0,2.83261 0.077,2.98506 2.75696,5.46183 1.51633,1.40134 2.94642,2.54789 3.17797,2.54789 0.23155,0 0.421,28.21868 0.421,62.70816 0,49.67489 -0.13761,62.76213 -0.66208,62.9679 -0.36414,0.14285 -2.6974,1.90498 -5.18503,3.91584 -2.48762,2.01085 -5.43713,4.08988 -6.55445,4.62007 -2.22891,1.05768 -7.62712,1.68798 -8.61152,1.00551 v 0 z"
   style="fill:#ffffff;fill-opacity:1;fill-rule:evenodd;stroke:#009246;stroke-width:2;stroke-linecap:round;stroke-linejoin:round;stroke-miterlimit:4;stroke-dasharray:none;stroke-dashoffset:0;stroke-opacity:1" /><path
   inkscape:connector-curvature="0"
   id="path3782"
   d="m 936.9312,945.46412 c -1.22643,-1.04933 -3.62974,-2.29597 -5.7251,-2.96971 -4.39836,-1.41427 -9.86018,-1.2035 -16.85909,0.65058 l -4.5121,1.19529 -3.60032,-1.21613 c -6.99849,-2.36397 -12.0874,-5.05145 -14.46187,-7.63739 l -2.25106,-2.45153 0,-53.38385 0,-53.38385 2.90258,-1.73611 c 1.59642,-0.95486 4.95512,-3.63767 7.46378,-5.96181 3.44212,-3.18894 5.75734,-4.8076 9.43647,-6.59739 6.18746,-3.01002 7.28501,-3.03581 9.15168,-0.21507 2.2625,3.41886 4.78091,4.4616 10.77007,4.4593 6.36772,-0.002 8.53712,-0.46697 10.26902,-2.19888 1.24738,-1.24738 1.38432,-1.78031 1.39163,-5.41616 0.007,-3.61957 0.76851,-6.47552 1.35724,-5.09197 1.09568,2.57497 2.21731,4.26017 2.9227,4.39127 1.37764,0.25602 6.63244,-1.9412 9.345,-3.90748 7.18784,-5.21029 8.53533,-5.72244 11.50093,-4.37122 1.45157,0.66138 1.69327,1.22871 0.76727,1.80101 -1.29527,0.80053 -6.1045,8.93158 -10.00577,16.91693 -12.81417,26.22888 -22.61301,56.62469 -21.55598,66.86627 0.3804,3.68572 2.03178,5.54774 6.30056,7.10422 1.68716,0.61516 3.06757,1.17576 3.06757,1.24575 0,0.07 -0.35753,1.1406 -0.7945,2.3791 -0.43697,1.23851 -0.79449,2.89024 -0.79449,3.67053 0,1.6725 2.54498,5.8896 4.29336,7.11421 1.59911,1.12006 7.36252,6.73672 7.34784,7.16077 -0.006,0.18029 -1.8121,1.40036 -4.01303,2.71127 -6.63545,3.95218 -8.95377,7.19762 -10.87548,15.22471 -0.99748,4.16648 -1.05035,5.13212 -0.52046,9.506 0.86219,7.11674 0.95836,6.94495 -2.31845,4.14134 z"
   style="fill:#ce2b37;fill-opacity:1;fill-rule:evenodd;stroke:#ce2b37;stroke-width:2;stroke-linecap:round;stroke-linejoin:round;stroke-miterlimit:4;stroke-opacity:1;stroke-dasharray:none;stroke-dashoffset:0" /><path
   inkscape:connector-curvature="0"
   id="path3784"
   d="m 987.74438,886.00646 c -0.94037,-0.1916 -3.04708,-0.69868 -4.68159,-1.12682 -2.83443,-0.74249 -3.07778,-0.9076 -5.26335,-3.57097 -1.72559,-2.10284 -2.76636,-3.95386 -4.21426,-7.49504 -2.49038,-6.09081 -3.1914,-9.39446 -3.21395,-15.14606 -0.0155,-3.96675 0.0877,-4.7569 0.76552,-5.85836 1.20438,-1.95716 2.8694,-3.11466 6.67407,-4.6398 6.70521,-2.68782 7.85089,-4.32008 9.04309,-12.88366 0.35298,-2.53545 1.25565,-6.42362 2.08007,-8.95971 2.27528,-6.99927 1.9442,-9.24943 -2.0446,-13.89602 -3.1567,-3.67726 -3.76278,-4.86882 -3.46099,-6.80437 0.35838,-2.29864 2.22957,-5.07761 4.24323,-6.30177 1.96137,-1.19239 3.77464,-1.68567 10.19806,-2.77435 2.36262,-0.40043 5.10472,-1.14683 6.09362,-1.65866 2.1999,-1.13873 4.992,-4.70186 6.9287,-8.84211 1.2838,-2.74436 1.4083,-3.31209 1.4083,-6.42353 0,-3.00598 -0.1342,-3.67433 -1.1243,-5.60319 -0.6184,-1.20456 -2.2195,-3.29121 -3.558,-4.63701 -6.2674,-6.3013 -7.4405,-7.74614 -8.58608,-10.57465 -1.56578,-3.86591 -2.10488,-6.78278 -3.18766,-17.24722 -0.51384,-4.96588 -1.29148,-10.42053 -1.7281,-12.12141 -1.79408,-6.98905 -5.18493,-14.9097 -8.80861,-20.57605 -1.26326,-1.97533 -2.08003,-2.76309 -3.66979,-3.53946 -1.8819,-0.91903 -2.19638,-1.29588 -3.94564,-4.72804 -1.04542,-2.05118 -2.34832,-4.9057 -2.89534,-6.3434 l -0.99459,-2.61396 0.65938,-3.36534 c 0.47104,-2.40412 0.58733,-4.15359 0.40716,-6.12516 -0.37242,-4.07534 -2.89358,-12.75409 -5.69424,-19.60163 -2.05717,-5.02974 -2.8758,-6.52704 -4.95007,-9.05391 -4.37453,-5.32901 -6.80004,-5.64497 -17.71341,-2.30751 -3.98392,1.21833 -8.0019,2.34453 -8.92886,2.50265 -0.92695,0.15812 -2.10671,0.38237 -2.62168,0.49833 -0.85273,0.19205 -0.93889,0.0674 -0.96514,-1.39682 -0.0239,-1.33529 -0.40468,-2.06726 -2.24716,-4.32008 -2.81531,-3.44229 -6.5955,-6.83859 -9.18876,-8.25558 -1.36678,-0.74683 -3.28758,-1.26323 -5.95076,-1.59984 -4.99546,-0.63138 -7.1967,-1.48621 -8.45297,-3.28264 -1.35023,-1.93078 -1.07272,-3.52265 1.50931,-8.65763 2.91309,-5.79338 3.42011,-7.76817 2.88438,-11.23437 -0.52715,-3.4107 -2.13085,-7.37817 -5.14332,-12.72433 -5.19016,-9.21088 -9.29332,-13.9928 -12.89988,-15.03384 -1.58798,-0.45835 -3.76081,-0.20143 -5.64245,0.6672 -0.45814,0.21149 -0.53185,-10.12342 -0.53185,-74.56613 0,-41.14641 0.0582,-74.81163 0.12945,-74.81162 0.0712,2e-5 0.5768,0.38033 1.12358,0.84515 1.86152,1.58249 6.97787,4.45416 10.3573,5.81327 6.89561,2.77321 15.18323,4.15625 24.90604,4.15632 10.80007,7e-5 33.92941,-3.44702 39.69985,-5.91667 7.63285,-3.26674 8.84765,-3.66891 11.23581,-3.71969 2.00741,-0.0427 2.73068,0.15782 4.12337,1.14302 2.90981,2.0584 5.2398,6.76769 5.2398,10.5905 0,4.19658 -2.30743,7.93171 -9.77938,15.83034 -7.95306,8.4072 -9.82317,11.51814 -9.81185,16.32205 0.0116,4.91022 2.77448,9.21327 9.12423,14.21044 9.42177,7.41482 20.04679,12.15825 39.30553,17.54756 26.4874,7.41213 35.8731,10.63093 43.2777,14.84194 4.7949,2.72682 6.9945,4.52628 12.0348,9.84531 9.5344,10.06167 11.1731,10.97954 30.2678,16.95297 10.6606,3.33498 16.5633,5.60725 20.0116,7.7036 3.2212,1.95822 3.5265,2.55687 3.7581,7.36838 0.2208,4.5872 0.528,5.36201 3.4458,8.69214 2.4004,2.73954 4.2847,4.12707 11.7564,8.65694 10.319,6.25609 14.3653,9.7527 17.9785,15.53617 3.3815,5.41261 5.782,12.55176 5.782,17.19587 l 0,2.75 -2.2538,2.38706 c -3.6832,3.90095 -3.8397,4.50082 -4.1318,15.83914 -0.2514,9.75628 -0.5286,11.8048 -1.6687,12.33122 -2.0332,0.93878 -4.961,-0.024 -11.8532,-3.89755 -9.5831,-5.38606 -11.9465,-9.01088 -15.076,-23.12312 -1.7317,-7.80891 -2.9064,-11.45747 -4.9171,-15.27275 -2.8963,-5.49562 -4.4188,-6.95642 -8.4389,-8.09656 -3.0289,-0.859 -6.7388,-0.86423 -14.581,-0.0205 -3.3989,0.36566 -7.9609,0.66733 -10.1379,0.67039 -6.2774,0.008 -8.5851,-1.08876 -17.7837,-8.4582 -6.418,-5.14174 -7.7705,-6.0284 -10.8252,-7.09692 -4.1687,-1.45817 -8.6765,0.12346 -12.8024,4.492 -1.771,1.87506 -2.462,3.32265 -8.6679,18.15714 -7.8542,18.77456 -11.9794,29.22704 -12.3029,31.17293 -0.185,1.1131 0.077,1.99392 1.3372,4.50462 1.5193,3.0255 1.5539,3.18049 1.1315,5.06793 -0.7195,3.21512 -2.1712,6.24016 -5.119,10.66733 -3.6625,5.50046 -4.3751,7.44632 -4.1428,11.31249 0.2221,3.69755 1.6176,7.17238 4.7801,11.90262 1.7388,2.60068 2.7738,3.69758 4.3823,4.64448 l 2.1058,1.23968 3.0303,-0.82996 c 1.6667,-0.45646 4.0701,-0.91818 5.341,-1.02604 2.0469,-0.17372 2.6026,-0.0229 4.8688,1.32041 2.812,1.66693 4.4367,3.06992 11.2703,9.73235 5.7651,5.62072 8.1387,7.18 11.774,7.73459 1.5173,0.23147 3.0419,0.55159 3.3879,0.71132 1.2346,0.57006 1.1178,1.90393 -0.4437,5.06657 -1.7359,3.51565 -1.9216,5.63196 -0.9691,11.0408 0.7507,4.26272 1.776,6.24464 4.038,7.80554 1.0401,0.71773 2.1983,1.81193 2.5739,2.43155 1.6661,2.74905 1.9324,15.59206 0.3982,19.21036 -1.9516,4.60303 -4.7671,6.2405 -18.443,10.72623 -9.3717,3.0739 -13.8889,5.42317 -18.3945,9.56639 -4.464,4.10485 -6.8591,8.83526 -7.2653,14.34883 -0.2525,3.42693 0.2289,6.70547 2.4486,16.67377 2.5898,11.63022 1.0207,20.15054 -4.2962,23.33006 -0.618,0.36954 -2.4695,1.31744 -4.1145,2.10645 -4.9805,2.38885 -7.731,4.92234 -10.3007,9.48772 -3.0163,5.35888 -4.084,8.37822 -7.1228,20.14139 -2.7031,10.4637 -4.1961,14.46571 -6.5933,17.67381 -3.39988,4.55011 -8.49668,6.27222 -14.77642,4.99273 l 0,0 z"
   style="fill:#ce2b37;fill-opacity:1;fill-rule:evenodd;stroke:#ce2b37;stroke-width:2.1938386;stroke-linecap:round;stroke-linejoin:round;stroke-miterlimit:4;stroke-opacity:1;stroke-dasharray:none;stroke-dashoffset:0" /><path
   inkscape:connector-curvature="0"
   id="path3786"
   d="m 886.95217,928.56241 c -5.81254,-10.48032 -8.33435,-13.35189 -13.88781,-15.81397 -4.55117,-2.01773 -6.54649,-2.26574 -17.80671,-2.21336 -10.71244,0.0498 -12.21751,-0.12742 -17.70573,-2.08518 -5.38858,-1.92221 -6.35025,-2.57811 -8.56388,-5.84088 -1.84813,-2.72404 -3.42624,-4.3482 -5.18531,-5.3366 -1.42725,-0.80196 -1.64673,-0.8426 -5.45949,-1.01097 -3.41043,-0.15061 -4.22598,-0.27456 -5.76434,-0.87613 -4.40559,-1.72277 -8.19045,-4.05033 -17.80557,-10.94983 -6.05318,-4.34356 -9.83141,-6.71313 -13.50636,-8.47071 -7.01171,-3.35343 -9.51277,-3.60054 -16.15466,-1.59612 -5.22269,1.57612 -7.08579,1.89075 -8.92968,1.50796 -1.28557,-0.26689 -1.63717,-0.51052 -3.56891,-2.47303 -7.48198,-7.60115 -14.90951,-16.96651 -14.91084,-18.80104 -3.9e-4,-0.54818 0.4984,-1.26774 1.96837,-2.83958 1.65301,-1.76757 1.99712,-2.29354 2.14479,-3.27828 0.21897,-1.4602 0.0542,-1.98796 -1.08767,-3.48389 -1.11371,-1.45905 -1.16818,-2.4812 -0.27316,-5.12664 1.38427,-4.09156 2.86291,-5.79599 7.09514,-8.17861 3.98208,-2.24179 5.4268,-3.66142 8.55176,-8.40327 2.71337,-4.11729 3.59919,-5.11885 4.04822,-4.57714 0.15494,0.18692 0.8712,2.12746 1.5917,4.31231 2.72146,8.25268 5.22775,11.52657 8.81671,11.517 1.71442,-0.005 6.20775,-1.18848 8.17255,-2.15331 3.44076,-1.68961 4.92096,-3.96288 5.95091,-9.13933 0.75167,-3.77782 1.17979,-4.78713 2.55912,-6.03327 1.89211,-1.70941 6.58541,-2.60871 12.29895,-2.35664 3.26902,0.14421 4.26188,0.41532 4.54933,1.24223 0.10848,0.31207 0.16977,1.67841 0.1362,3.03632 -0.0968,3.91533 0.43064,5.23551 2.4649,6.16965 1.40668,0.64595 2.20682,0.62137 5.17818,-0.15904 2.76078,-0.7251 4.67478,-0.84383 5.37298,-0.3333 0.25103,0.18356 0.63633,1.04757 0.85623,1.92003 0.68378,2.71298 0.84482,2.94957 2.85525,4.19492 4.53063,2.80646 8.87638,4.519 12.40065,4.88677 2.03068,0.2119 2.03882,0.21021 4.89937,-1.02335 1.57592,-0.67958 5.78506,-2.63311 9.35365,-4.34118 l 6.48835,-3.10557 2.78072,0.27125 c 1.5294,0.1492 4.86626,0.59546 7.41525,0.99171 6.71036,1.04314 12.66203,1.05546 16.9244,0.035 1.66144,-0.39775 4.04045,-1.07465 5.28669,-1.50421 1.24624,-0.42956 2.30045,-0.74647 2.34268,-0.70424 0.0422,0.0422 0.0467,23.78213 0.01,52.75534 l -0.0669,52.67854 -1.83599,-3.31038 z"
   style="fill:#ffffff;fill-opacity:1;fill-rule:evenodd;stroke:#ce2b37;stroke-width:2;stroke-linecap:round;stroke-linejoin:round;stroke-miterlimit:4;stroke-opacity:1;stroke-dasharray:none;stroke-dashoffset:0" /></g>
	
</g>
</svg>
