<svg width="64" height="64" viewBox="0 0 64 64" fill="none" xmlns="http://www.w3.org/2000/svg">
<path fill-rule="evenodd" clip-rule="evenodd" d="M21.0704 16.5826C21.4452 16.2095 21.9525 16 22.4814 16H56C57.1046 16 58 16.8954 58 18V46C58 47.1046 57.1046 48 56 48H22.4814C21.9525 48 21.4452 47.7905 21.0704 47.4174L7.00646 33.4174C6.22111 32.6357 6.22111 31.3644 7.00646 30.5826L21.0704 16.5826ZM56 18H22.4814L8.41745 32L22.4814 46H56V18Z" fill="black"/>
<path fill-rule="evenodd" clip-rule="evenodd" d="M47.7929 40.2071L33.2929 25.7071L34.7071 24.2929L49.2071 38.7929L47.7929 40.2071Z" fill="black"/>
<path fill-rule="evenodd" clip-rule="evenodd" d="M34.7071 40.2071L49.2071 25.7071L47.7929 24.2929L33.2929 38.7929L34.7071 40.2071Z" fill="black"/>
</svg>
